<svg width="130" height="131" viewBox="0 0 130 131" fill="none" xmlns="http://www.w3.org/2000/svg">
<path d="M0.523438 65.4407C0.523438 29.7343 29.4692 0.788574 65.1755 0.788574V0.788574C100.882 0.788574 129.828 29.7343 129.828 65.4407V65.4407C129.828 101.147 100.882 130.093 65.1755 130.093V130.093C29.4692 130.093 0.523438 101.147 0.523438 65.4407V65.4407Z" fill="#F0B90B"/>
<path d="M47.799 58.3013L65.1762 40.9241L82.5617 58.3088L92.6727 48.1979L65.1762 20.7021L37.6888 48.1896L47.7994 58.3006L47.799 58.3013ZM20.4375 65.4409L30.5488 55.3282L40.6594 65.4387L30.5481 75.5501L20.4375 65.4409ZM47.799 72.5816L65.1762 89.9577L82.5614 72.5733L92.6777 82.6789L92.6727 82.6843L65.1762 110.18L37.6888 82.6922L37.6744 82.6778L47.8001 72.5805L47.799 72.5816ZM89.6931 65.4452L99.8044 55.3339L109.915 65.4445L99.804 75.5558L89.6931 65.4452Z" fill="black"/>
<path d="M75.4302 65.4347H75.4345L65.1754 55.1748L57.5923 62.7557L56.7212 63.6272L54.9245 65.4243L54.9102 65.4382L54.9245 65.4529L65.1754 75.7052L75.4352 65.4454L75.4402 65.4397L75.4309 65.4347" fill="black"/>
</svg>
